<svg version="1.1" id="Layer_1" xmlns="http://www.w3.org/2000/svg" xmlns:xlink="http://www.w3.org/1999/xlink" x="0px" y="0px"
	 width="100%" viewBox="0 0 500 500" enable-background="new 0 0 500 500" xml:space="preserve">
<path fill="#FFFFFF" opacity="1.000000" stroke="none" 
	d="
M328.000000,501.000000 
	C218.666687,501.000000 109.833382,501.000000 1.000058,501.000000 
	C1.000039,334.333405 1.000039,167.666794 1.000019,1.000148 
	C167.666565,1.000099 334.333130,1.000099 500.999756,1.000049 
	C500.999847,167.666519 500.999847,334.333038 500.999939,500.999786 
	C443.500000,501.000000 386.000000,501.000000 328.000000,501.000000 
M408.015289,139.367630 
	C399.620422,128.419205 392.118195,116.622215 382.666199,106.678680 
	C352.172485,74.599159 313.802856,57.671204 270.377899,52.234772 
	C232.085129,47.440842 194.321091,50.572037 157.422272,62.606968 
	C105.208305,79.637093 64.414406,111.560646 36.337219,158.431870 
	C5.807346,209.397507 -2.702327,264.911652 9.336281,323.002441 
	C19.753820,373.271027 46.575256,412.950226 90.223244,440.658478 
	C107.169456,451.416168 125.662392,458.935516 144.423935,465.883148 
	C189.011963,482.394592 234.697220,488.982819 281.748352,479.870453 
	C331.402130,470.253998 374.627319,448.583252 407.421906,408.953552 
	C423.083771,390.027435 434.581421,368.746368 441.781342,344.696869 
	C447.105530,340.739166 452.932098,337.302521 457.668701,332.735443 
	C480.709045,310.519745 489.584198,281.843475 492.803467,251.185883 
	C494.809662,232.080521 491.323151,213.518921 483.183868,195.831650 
	C472.696442,173.041687 456.729004,156.017197 433.093658,147.023514 
	C425.092468,143.978912 416.562317,142.324509 408.015289,139.367630 
z"/>
<path fill="#4D8C92" opacity="1.000000" stroke="none" 
	d="
M441.186401,344.962860 
	C434.581421,368.746368 423.083771,390.027435 407.421906,408.953552 
	C374.627319,448.583252 331.402130,470.253998 281.748352,479.870453 
	C234.697220,488.982819 189.011963,482.394592 144.423935,465.883148 
	C125.662392,458.935516 107.169456,451.416168 90.223244,440.658478 
	C46.575256,412.950226 19.753820,373.271027 9.336281,323.002441 
	C-2.702327,264.911652 5.807346,209.397507 36.337219,158.431870 
	C64.414406,111.560646 105.208305,79.637093 157.422272,62.606968 
	C194.321091,50.572037 232.085129,47.440842 270.377899,52.234772 
	C313.802856,57.671204 352.172485,74.599159 382.666199,106.678680 
	C392.118195,116.622215 399.620422,128.419205 407.655518,139.737381 
	C392.319763,139.792313 377.322784,139.296494 362.793945,144.011871 
	C339.399689,151.604584 317.336182,161.381760 301.803162,181.689194 
	C292.861694,193.378983 286.691864,206.290436 284.482361,220.893524 
	C276.754791,212.432465 267.192963,208.622040 256.289276,208.204010 
	C234.426224,207.365814 217.352859,221.512878 213.982971,243.221481 
	C211.233704,260.932129 214.686783,276.824310 229.046402,288.827148 
	C243.462219,300.876984 272.190643,301.822937 287.900879,281.211670 
	C288.330109,282.527985 288.655365,283.469666 288.980621,284.411316 
	C303.579407,326.673645 341.945038,355.558868 388.901093,356.964874 
	C407.375488,357.518036 424.816528,353.575073 441.186401,344.962860 
M193.051254,264.480469 
	C193.018341,256.532959 193.951263,248.437271 192.759308,240.667572 
	C189.939850,222.289139 178.778275,211.232697 161.420273,209.723007 
	C150.173309,208.744843 138.784622,209.396286 127.459450,209.317627 
	C123.975487,209.293427 123.443649,211.630661 123.443314,214.366211 
	C123.440163,240.025024 123.460068,265.683868 123.421036,291.342621 
	C123.415993,294.660309 124.652145,296.128174 128.170364,296.074768 
	C139.164536,295.907837 150.170593,296.238525 161.156479,295.888123 
	C172.008362,295.542053 180.932953,290.816925 186.512451,281.432495 
	C189.429962,276.525421 190.845734,270.725464 193.051254,264.480469 
M95.948090,282.507782 
	C86.560303,259.383484 77.201256,236.247406 67.718964,213.161942 
	C67.097893,211.649902 65.533463,210.525345 64.407829,209.220551 
	C63.269348,210.491913 61.693104,211.577972 61.063744,213.064850 
	C57.108135,222.410049 53.366463,231.845734 49.547855,241.248993 
	C42.912060,257.589478 36.201015,273.900360 29.750904,290.313812 
	C29.154427,291.831665 30.205729,293.997009 30.491913,295.861725 
	C31.768557,294.611145 33.566906,293.588745 34.231071,292.070282 
	C37.029850,285.671478 39.578892,279.157867 42.029716,272.615265 
	C42.975971,270.089172 44.295296,269.018219 47.130081,269.057922 
	C58.458183,269.216736 69.791435,269.226776 81.119026,269.050720 
	C83.969856,269.006409 85.198860,270.052887 86.170403,272.585297 
	C88.851456,279.573700 91.704872,286.502747 94.762886,293.333130 
	C95.271362,294.468872 97.149948,294.991180 98.395409,295.796967 
	C98.800743,294.380341 99.814232,292.802185 99.489449,291.579529 
	C98.727074,288.709473 97.324577,286.009460 95.948090,282.507782 
M307.972626,329.001282 
	C301.699768,331.592255 299.085571,335.874390 299.983917,342.087006 
	C300.652557,346.711090 304.350952,350.508545 308.703094,351.039734 
	C314.847656,351.789673 320.273071,347.016144 320.665771,340.514435 
	C321.065186,333.900726 316.099518,329.047852 307.972626,329.001282 
M251.638428,328.929840 
	C250.757965,329.617859 249.134216,330.283661 249.112900,330.997314 
	C248.916382,337.574951 248.997025,344.160858 248.997025,351.025116 
	C251.824127,351.025116 253.967651,351.074493 256.108246,351.016052 
	C263.268250,350.820618 267.149597,346.782745 267.047791,339.687347 
	C266.936157,331.902893 262.956085,328.943024 251.638428,328.929840 
M157.380661,329.342377 
	C155.984116,331.386749 153.330307,333.575165 153.543442,335.435089 
	C153.758026,337.307709 156.667175,339.082184 158.694214,340.460602 
	C159.990219,341.341888 162.070877,341.074524 163.357773,341.962585 
	C164.776794,342.941833 165.690216,344.653748 166.823868,346.046539 
	C165.289352,347.047272 163.753876,348.874359 162.220520,348.872589 
	C159.247711,348.869141 156.276077,347.837067 153.195786,347.209167 
	C156.153595,351.734406 165.129166,352.587921 168.187057,348.763977 
	C170.402313,345.993774 169.587051,342.036560 166.197617,340.377075 
	C164.292999,339.444611 162.120316,339.041687 160.048203,338.473999 
	C157.714554,337.834686 154.895935,337.023712 156.165894,334.079132 
	C156.825485,332.549774 159.547974,331.361145 161.489441,331.087036 
	C163.457733,330.809082 165.611923,331.847748 169.021271,332.607697 
	C165.309814,328.297546 161.724747,328.744141 157.380661,329.342377 
M216.283722,341.754272 
	C216.114288,337.543121 215.944839,333.332001 215.775406,329.120850 
	C215.107758,329.162811 214.440125,329.204773 213.772476,329.246704 
	C214.028198,334.420410 213.642685,339.745453 214.812683,344.703400 
	C215.389542,347.147827 218.632202,350.267914 221.044632,350.639252 
	C223.962067,351.088348 228.507309,349.903839 230.180588,347.745758 
	C234.463303,342.222168 232.860474,335.485291 231.246735,329.079559 
	C230.126526,332.930786 230.180908,336.862061 230.111328,340.791138 
	C230.040939,344.766144 228.785065,348.204742 224.362137,348.882019 
	C219.733978,349.590790 217.236084,347.027161 216.283722,341.754272 
M197.973633,328.950409 
	C192.744751,328.950409 187.515854,328.950409 182.286972,328.950409 
	C182.297043,329.509979 182.307129,330.069580 182.317200,330.629150 
	C184.674179,330.808380 187.031158,330.987640 190.331635,331.238617 
	C190.331635,337.832092 190.331635,344.325012 190.331635,350.817932 
	C190.882095,350.792633 191.432541,350.767365 191.983002,350.742096 
	C191.983002,344.257141 191.983002,337.772186 191.983002,331.126556 
	C194.629211,331.010956 196.598709,330.966583 198.551407,330.761963 
	C198.710831,330.745270 198.755692,329.635254 197.973633,328.950409 
M284.389771,350.628601 
	C285.248749,343.411133 285.220520,336.232208 283.324890,329.073517 
	C282.245911,335.388733 282.190674,341.718475 282.304993,348.045105 
	C282.322327,349.001892 283.128906,349.944427 284.389771,350.628601 
z"/>
<path fill="#BFBBB5" opacity="1.000000" stroke="none" 
	d="
M284.771484,221.030533 
	C286.691864,206.290436 292.861694,193.378983 301.803162,181.689194 
	C317.336182,161.381760 339.399689,151.604584 362.793945,144.011871 
	C377.322784,139.296494 392.319763,139.792313 407.784821,140.070953 
	C416.562317,142.324509 425.092468,143.978912 433.093658,147.023514 
	C456.729004,156.017197 472.696442,173.041687 483.183868,195.831650 
	C491.323151,213.518921 494.809662,232.080521 492.803467,251.185883 
	C489.584198,281.843475 480.709045,310.519745 457.668701,332.735443 
	C452.932098,337.302521 447.105530,340.739166 441.483887,344.829865 
	C424.816528,353.575073 407.375488,357.518036 388.901093,356.964874 
	C341.945038,355.558868 303.579407,326.673645 288.980621,284.411316 
	C288.655365,283.469666 288.330109,282.527985 288.006287,280.877960 
	C299.530731,260.769562 298.355499,239.293335 284.771484,221.030533 
M366.763672,260.502197 
	C371.223816,263.173615 372.725464,267.419312 373.062714,272.297607 
	C373.360962,276.612213 373.072876,281.091644 374.186401,285.187592 
	C375.134613,288.675537 377.578918,291.810608 379.678284,294.885376 
	C380.088440,295.486115 381.953033,295.093750 383.146820,295.159454 
	C383.148987,293.990540 383.646729,292.224701 383.073547,291.748871 
	C379.127991,288.473602 378.659760,284.015442 378.679077,279.488739 
	C378.724152,268.923920 376.850372,259.379120 365.851898,254.263672 
	C368.398590,252.653519 370.479370,251.584030 372.277313,250.157974 
	C379.497925,244.430923 382.620361,234.487778 379.777191,225.388718 
	C376.969604,216.403549 370.466522,210.822388 361.300018,210.120132 
	C349.207764,209.193710 337.012634,209.471619 324.865692,209.602417 
	C323.578949,209.616272 321.220367,212.103058 321.208984,213.458115 
	C320.989349,239.606400 321.006622,265.757233 321.159180,291.906433 
	C321.167053,293.250824 322.821991,294.585541 323.710083,295.924774 
	C324.561798,294.563934 326.112000,293.222565 326.150604,291.839050 
	C326.382721,283.517426 326.268127,275.186127 326.269318,266.858063 
	C326.269775,263.782745 326.269409,260.707428 326.269409,257.420074 
	C336.970917,257.420074 346.782837,257.203522 356.575439,257.543701 
	C359.776550,257.654877 362.927338,259.214569 366.763672,260.502197 
M456.069885,250.312134 
	C451.014191,237.833496 446.016632,225.330582 440.824890,212.908813 
	C440.216888,211.454193 438.538269,210.447037 437.355957,209.232452 
	C436.422333,210.287949 435.114319,211.190155 434.610229,212.421478 
	C423.904266,238.572739 413.256378,264.748077 402.752563,290.980957 
	C402.235779,292.271545 403.130920,294.127502 403.368622,295.720184 
	C404.645752,294.797028 406.552002,294.148590 407.095093,292.904877 
	C410.020294,286.206116 412.700409,279.394501 415.262024,272.545868 
	C416.213470,270.002106 417.508026,269.016602 420.352325,269.065674 
	C431.343719,269.255432 442.343872,269.299438 453.333038,269.052551 
	C456.893433,268.972534 458.655609,270.037598 459.866516,273.424133 
	C462.214783,279.991425 464.933807,286.437286 467.792664,292.801666 
	C468.385986,294.122528 470.255859,294.869965 471.537384,295.881683 
	C471.865448,294.170044 472.245728,292.465668 472.484650,290.741669 
	C472.543915,290.314087 472.145203,289.822998 471.956879,289.361206 
	C466.748199,276.585876 461.539459,263.810577 456.069885,250.312134 
z"/>
<path fill="#040707" opacity="1.000000" stroke="none" 
	d="
M192.995499,264.904602 
	C190.845734,270.725464 189.429962,276.525421 186.512451,281.432495 
	C180.932953,290.816925 172.008362,295.542053 161.156479,295.888123 
	C150.170593,296.238525 139.164536,295.907837 128.170364,296.074768 
	C124.652145,296.128174 123.415993,294.660309 123.421036,291.342621 
	C123.460068,265.683868 123.440163,240.025024 123.443314,214.366211 
	C123.443649,211.630661 123.975487,209.293427 127.459450,209.317627 
	C138.784622,209.396286 150.173309,208.744843 161.420273,209.723007 
	C178.778275,211.232697 189.939850,222.289139 192.759308,240.667572 
	C193.951263,248.437271 193.018341,256.532959 192.995499,264.904602 
M128.902145,275.496704 
	C128.902145,280.579834 128.902145,285.662964 128.902145,290.893829 
	C140.155426,290.893829 150.650864,291.351013 161.088120,290.767365 
	C171.891083,290.163330 180.031128,284.631104 184.374725,274.530151 
	C190.757736,259.686554 190.625198,244.707489 183.709076,230.095596 
	C179.956345,222.167038 173.517410,216.189682 164.724808,215.460678 
	C153.051437,214.492859 141.237366,215.222015 128.902054,215.222015 
	C128.902054,234.964691 128.902054,254.731461 128.902145,275.496704 
z"/>
<path fill="#060808" opacity="1.000000" stroke="none" 
	d="
M284.482361,220.893524 
	C298.355499,239.293335 299.530731,260.769562 287.902344,280.503296 
	C272.190643,301.822937 243.462219,300.876984 229.046402,288.827148 
	C214.686783,276.824310 211.233704,260.932129 213.982971,243.221481 
	C217.352859,221.512878 234.426224,207.365814 256.289276,208.204010 
	C267.192963,208.622040 276.754791,212.432465 284.482361,220.893524 
M285.865753,272.642792 
	C293.174133,260.554688 291.819702,238.959015 282.899841,227.278107 
	C270.809387,211.403748 247.983475,208.432144 232.233932,220.682114 
	C215.023468,234.068375 213.537811,266.293823 229.396179,282.235748 
	C244.666351,297.586365 271.828857,295.121796 283.559143,277.247498 
	C284.421021,275.934174 284.568817,274.152222 285.865753,272.642792 
z"/>
<path fill="#040707" opacity="1.000000" stroke="none" 
	d="
M96.064629,282.874207 
	C97.324577,286.009460 98.727074,288.709473 99.489449,291.579529 
	C99.814232,292.802185 98.800743,294.380341 98.395409,295.796967 
	C97.149948,294.991180 95.271362,294.468872 94.762886,293.333130 
	C91.704872,286.502747 88.851456,279.573700 86.170403,272.585297 
	C85.198860,270.052887 83.969856,269.006409 81.119026,269.050720 
	C69.791435,269.226776 58.458183,269.216736 47.130081,269.057922 
	C44.295296,269.018219 42.975971,270.089172 42.029716,272.615265 
	C39.578892,279.157867 37.029850,285.671478 34.231071,292.070282 
	C33.566906,293.588745 31.768557,294.611145 30.491913,295.861725 
	C30.205729,293.997009 29.154427,291.831665 29.750904,290.313812 
	C36.201015,273.900360 42.912060,257.589478 49.547855,241.248993 
	C53.366463,231.845734 57.108135,222.410049 61.063744,213.064850 
	C61.693104,211.577972 63.269348,210.491913 64.407837,209.220551 
	C65.533463,210.525345 67.097893,211.649902 67.718964,213.161942 
	C77.201256,236.247406 86.560303,259.383484 96.064629,282.874207 
M48.928719,255.482025 
	C47.913986,258.179413 46.899250,260.876770 45.785652,263.836945 
	C58.292160,263.836945 70.039322,263.836945 82.622078,263.836945 
	C76.403198,248.532135 70.402901,233.765289 63.924709,217.822327 
	C58.641827,231.029526 53.899136,242.886230 48.928719,255.482025 
z"/>
<path fill="#091111" opacity="1.000000" stroke="none" 
	d="
M308.381927,328.955444 
	C316.099518,329.047852 321.065186,333.900726 320.665771,340.514435 
	C320.273071,347.016144 314.847656,351.789673 308.703094,351.039734 
	C304.350952,350.508545 300.652557,346.711090 299.983917,342.087006 
	C299.085571,335.874390 301.699768,331.592255 308.381927,328.955444 
M314.152008,347.898956 
	C315.204926,346.654480 316.544922,345.554138 317.255981,344.138031 
	C319.246979,340.172607 318.044739,334.770966 314.700531,332.458038 
	C311.477692,330.229095 308.187347,330.201996 305.162079,332.934906 
	C301.694397,336.067413 300.991180,341.289124 303.590942,345.155426 
	C306.014618,348.759796 309.260986,350.097961 314.152008,347.898956 
z"/>
<path fill="#050A0A" opacity="1.000000" stroke="none" 
	d="
M252.105774,328.926392 
	C262.956085,328.943024 266.936157,331.902893 267.047791,339.687347 
	C267.149597,346.782745 263.268250,350.820618 256.108246,351.016052 
	C253.967651,351.074493 251.824127,351.025116 248.997025,351.025116 
	C248.997025,344.160858 248.916382,337.574951 249.112900,330.997314 
	C249.134216,330.283661 250.757965,329.617859 252.105774,328.926392 
M262.254456,346.839569 
	C265.539551,342.944366 265.927032,338.694153 263.280334,334.425629 
	C260.471771,329.896057 255.980270,330.841644 251.413651,331.227142 
	C251.413651,337.119385 251.413651,342.829376 251.413651,349.662933 
	C255.140945,348.817261 258.388367,348.080475 262.254456,346.839569 
z"/>
<path fill="#0A1213" opacity="1.000000" stroke="none" 
	d="
M157.775848,329.211426 
	C161.724747,328.744141 165.309814,328.297546 169.021271,332.607697 
	C165.611923,331.847748 163.457733,330.809082 161.489441,331.087036 
	C159.547974,331.361145 156.825485,332.549774 156.165894,334.079132 
	C154.895935,337.023712 157.714554,337.834686 160.048203,338.473999 
	C162.120316,339.041687 164.292999,339.444611 166.197617,340.377075 
	C169.587051,342.036560 170.402313,345.993774 168.187057,348.763977 
	C165.129166,352.587921 156.153595,351.734406 153.195786,347.209167 
	C156.276077,347.837067 159.247711,348.869141 162.220520,348.872589 
	C163.753876,348.874359 165.289352,347.047272 166.823868,346.046539 
	C165.690216,344.653748 164.776794,342.941833 163.357773,341.962585 
	C162.070877,341.074524 159.990219,341.341888 158.694214,340.460602 
	C156.667175,339.082184 153.758026,337.307709 153.543442,335.435089 
	C153.330307,333.575165 155.984116,331.386749 157.775848,329.211426 
z"/>
<path fill="#0B1415" opacity="1.000000" stroke="none" 
	d="
M216.378601,342.169342 
	C217.236084,347.027161 219.733978,349.590790 224.362137,348.882019 
	C228.785065,348.204742 230.040939,344.766144 230.111328,340.791138 
	C230.180908,336.862061 230.126526,332.930786 231.246735,329.079559 
	C232.860474,335.485291 234.463303,342.222168 230.180588,347.745758 
	C228.507309,349.903839 223.962067,351.088348 221.044632,350.639252 
	C218.632202,350.267914 215.389542,347.147827 214.812683,344.703400 
	C213.642685,339.745453 214.028198,334.420410 213.772476,329.246704 
	C214.440125,329.204773 215.107758,329.162811 215.775406,329.120850 
	C215.944839,333.332001 216.114288,337.543121 216.378601,342.169342 
z"/>
<path fill="#030506" opacity="1.000000" stroke="none" 
	d="
M198.413696,328.991821 
	C198.755692,329.635254 198.710831,330.745270 198.551407,330.761963 
	C196.598709,330.966583 194.629211,331.010956 191.983002,331.126556 
	C191.983002,337.772186 191.983002,344.257141 191.983002,350.742096 
	C191.432541,350.767365 190.882095,350.792633 190.331635,350.817932 
	C190.331635,344.325012 190.331635,337.832092 190.331635,331.238617 
	C187.031158,330.987640 184.674179,330.808380 182.317200,330.629150 
	C182.307129,330.069580 182.297043,329.509979 182.286972,328.950409 
	C187.515854,328.950409 192.744751,328.950409 198.413696,328.991821 
z"/>
<path fill="#0C1617" opacity="1.000000" stroke="none" 
	d="
M283.980103,350.761078 
	C283.128906,349.944427 282.322327,349.001892 282.304993,348.045105 
	C282.190674,341.718475 282.245911,335.388733 283.324890,329.073517 
	C285.220520,336.232208 285.248749,343.411133 283.980103,350.761078 
z"/>
<path fill="#0B0A0A" opacity="1.000000" stroke="none" 
	d="
M366.432404,260.307007 
	C362.927338,259.214569 359.776550,257.654877 356.575439,257.543701 
	C346.782837,257.203522 336.970917,257.420074 326.269409,257.420074 
	C326.269409,260.707428 326.269775,263.782745 326.269318,266.858063 
	C326.268127,275.186127 326.382721,283.517426 326.150604,291.839050 
	C326.112000,293.222565 324.561798,294.563934 323.710083,295.924774 
	C322.821991,294.585541 321.167053,293.250824 321.159180,291.906433 
	C321.006622,265.757233 320.989349,239.606400 321.208984,213.458115 
	C321.220367,212.103058 323.578949,209.616272 324.865692,209.602417 
	C337.012634,209.471619 349.207764,209.193710 361.300018,210.120132 
	C370.466522,210.822388 376.969604,216.403549 379.777191,225.388718 
	C382.620361,234.487778 379.497925,244.430923 372.277313,250.157974 
	C370.479370,251.584030 368.398590,252.653519 365.851898,254.263672 
	C376.850372,259.379120 378.724152,268.923920 378.679077,279.488739 
	C378.659760,284.015442 379.127991,288.473602 383.073547,291.748871 
	C383.646729,292.224701 383.148987,293.990540 383.146820,295.159424 
	C381.953033,295.093750 380.088440,295.486115 379.678284,294.885376 
	C377.578918,291.810608 375.134613,288.675537 374.186401,285.187592 
	C373.072876,281.091644 373.360962,276.612213 373.062714,272.297607 
	C372.725464,267.419312 371.223816,263.173615 366.432404,260.307007 
M328.743500,252.267212 
	C338.073212,252.256393 347.410553,252.477936 356.730499,252.170914 
	C366.486816,251.849533 374.165619,244.469070 375.179901,235.053894 
	C376.236176,225.249023 371.858459,216.736847 362.809692,215.734772 
	C350.899750,214.415878 338.733582,215.410736 326.277222,215.410736 
	C326.277222,226.964508 326.256592,238.762711 326.341614,250.560150 
	C326.345612,251.117004 327.288452,251.667068 328.743500,252.267212 
z"/>
<path fill="#0A0909" opacity="1.000000" stroke="none" 
	d="
M456.200317,250.673706 
	C461.539459,263.810577 466.748199,276.585876 471.956879,289.361206 
	C472.145203,289.822998 472.543915,290.314087 472.484650,290.741669 
	C472.245728,292.465668 471.865448,294.170044 471.537384,295.881683 
	C470.255859,294.869965 468.385986,294.122528 467.792664,292.801666 
	C464.933807,286.437286 462.214783,279.991425 459.866516,273.424133 
	C458.655609,270.037598 456.893433,268.972534 453.333038,269.052551 
	C442.343872,269.299438 431.343719,269.255432 420.352325,269.065674 
	C417.508026,269.016602 416.213470,270.002106 415.262024,272.545868 
	C412.700409,279.394501 410.020294,286.206116 407.095093,292.904877 
	C406.552002,294.148590 404.645752,294.797028 403.368622,295.720184 
	C403.130920,294.127502 402.235779,292.271545 402.752563,290.980957 
	C413.256378,264.748077 423.904266,238.572739 434.610229,212.421478 
	C435.114319,211.190155 436.422333,210.287949 437.355957,209.232452 
	C438.538269,210.447037 440.216888,211.454193 440.824890,212.908813 
	C446.016632,225.330582 451.014191,237.833496 456.200317,250.673706 
M429.800232,236.329041 
	C426.183105,245.392944 422.566010,254.456833 418.797607,263.899841 
	C431.348297,263.899841 443.367004,263.899841 455.919098,263.899841 
	C449.717499,248.639160 443.677673,233.776535 437.182922,217.794434 
	C434.467651,224.562454 432.253845,230.080505 429.800232,236.329041 
z"/>
<path fill="#4D8B91" opacity="1.000000" stroke="none" 
	d="
M128.902100,274.997467 
	C128.902054,254.731461 128.902054,234.964691 128.902054,215.222015 
	C141.237366,215.222015 153.051437,214.492859 164.724808,215.460678 
	C173.517410,216.189682 179.956345,222.167038 183.709076,230.095596 
	C190.625198,244.707489 190.757736,259.686554 184.374725,274.530151 
	C180.031128,284.631104 171.891083,290.163330 161.088120,290.767365 
	C150.650864,291.351013 140.155426,290.893829 128.902145,290.893829 
	C128.902145,285.662964 128.902145,280.579834 128.902100,274.997467 
z"/>
<path fill="#4D8B91" opacity="1.000000" stroke="none" 
	d="
M285.048584,272.588135 
	C284.568817,274.152222 284.421021,275.934174 283.559143,277.247498 
	C271.828857,295.121796 244.666351,297.586365 229.396179,282.235748 
	C213.537811,266.293823 215.023468,234.068375 232.233932,220.682114 
	C247.983475,208.432144 270.809387,211.403748 282.973083,228.043823 
	C282.724701,233.576889 281.885437,238.377518 282.189209,243.104675 
	C282.822021,252.953079 284.059509,262.762634 285.048584,272.588135 
z"/>
<path fill="#B7B5AF" opacity="1.000000" stroke="none" 
	d="
M285.457153,272.615479 
	C284.059509,262.762634 282.822021,252.953079 282.189209,243.104675 
	C281.885437,238.377518 282.724701,233.576889 283.054077,228.372833 
	C291.819702,238.959015 293.174133,260.554688 285.457153,272.615479 
z"/>
<path fill="#4C8A90" opacity="1.000000" stroke="none" 
	d="
M49.042583,255.112488 
	C53.899136,242.886230 58.641827,231.029526 63.924709,217.822327 
	C70.402901,233.765289 76.403198,248.532135 82.622078,263.836945 
	C70.039322,263.836945 58.292160,263.836945 45.785652,263.836945 
	C46.899250,260.876770 47.913986,258.179413 49.042583,255.112488 
z"/>
<path fill="#4B898F" opacity="1.000000" stroke="none" 
	d="
M313.802429,348.082886 
	C309.260986,350.097961 306.014618,348.759796 303.590942,345.155426 
	C300.991180,341.289124 301.694397,336.067413 305.162079,332.934906 
	C308.187347,330.201996 311.477692,330.229095 314.700531,332.458038 
	C318.044739,334.770966 319.246979,340.172607 317.255981,344.138031 
	C316.544922,345.554138 315.204926,346.654480 313.802429,348.082886 
z"/>
<path fill="#4A878D" opacity="1.000000" stroke="none" 
	d="
M261.945129,347.091614 
	C258.388367,348.080475 255.140945,348.817261 251.413651,349.662933 
	C251.413651,342.829376 251.413651,337.119385 251.413651,331.227142 
	C255.980270,330.841644 260.471771,329.896057 263.280334,334.425629 
	C265.927032,338.694153 265.539551,342.944366 261.945129,347.091614 
z"/>
<path fill="#BDB9B2" opacity="1.000000" stroke="none" 
	d="
M328.268799,252.243759 
	C327.288452,251.667068 326.345612,251.117004 326.341614,250.560150 
	C326.256592,238.762711 326.277222,226.964508 326.277222,215.410736 
	C338.733582,215.410736 350.899750,214.415878 362.809692,215.734772 
	C371.858459,216.736847 376.236176,225.249023 375.179901,235.053894 
	C374.165619,244.469070 366.486816,251.849533 356.730499,252.170914 
	C347.410553,252.477936 338.073212,252.256393 328.268799,252.243759 
z"/>
<path fill="#BDB9B2" opacity="1.000000" stroke="none" 
	d="
M429.920135,235.963806 
	C432.253845,230.080505 434.467651,224.562454 437.182922,217.794434 
	C443.677673,233.776535 449.717499,248.639160 455.919098,263.899841 
	C443.367004,263.899841 431.348297,263.899841 418.797607,263.899841 
	C422.566010,254.456833 426.183105,245.392944 429.920135,235.963806 
z"/>
</svg>